<?xml version="1.0" encoding="ISO-8859-1" ?>
<!DOCTYPE svg PUBLIC "-//W3C//DTD SVG 1.1//EN" "http://www.w3.org/Graphics/SVG/1.1/DTD/svg11.dtd">
<svg xmlns="http://www.w3.org/2000/svg" width="1000" height="1000" x="0" y="0">
	<rect x="10" y="10" width="300" height="100" style="fill:rgb(0,0,255);stroke-width:1; stroke:rgb(0,0,0)"/>
	<rect x="10" y="120" rx="20" ry="20" width="250" height="100" style="fill:red;stroke:black;stroke-width:5;opacity:0.5"/>
	<circle cx="100" cy="300" r="70" stroke="black" stroke-width="2" fill="red"/>
	
	<ellipse cx="240" cy="420" rx="220" ry="30" style="fill:yellow"/>
	<ellipse cx="220" cy="420" rx="190" ry="20" style="fill:white"/>
	
	<line x1="400" y1="10" x2="400" y2="300" style="stroke:rgb(99,99,99);stroke-width:2"/>	
	<polygon points="220,100 300,210 170,250 123,234" style="fill:#cccccc; stroke:#000000;stroke-width:1"/>	
	<polyline points="100,100 100,20 20,20 20,40 40,40 40,60" style="fill:white;stroke:red;stroke-width:2"/>
		
	<path d="M153 334
	C153 334 151 334 151 334
	C151 339 153 344 156 344
	C164 344 171 339 171 334
	C171 322 164 314 156 314
	C142 314 131 322 131 334
	C131 350 142 364 156 364
	C175 364 191 350 191 334
	C191 311 175 294 156 294
	C131 294 111 311 111 334
	C111 361 131 384 156 384
	C186 384 211 361 211 334
	C211 300 186 274 156 274"
	style="fill:white;stroke:red;stroke-width:2"/>	
</svg>